HIERARCHY
ROOT pelvis
{
	OFFSET 0.003123 -0.351407 0.012037
	CHANNELS 6 Xposition Yposition Zposition Zrotation Yrotation Xrotation 
	JOINT left_hip
	{
		OFFSET 0.058189 -0.092763 -0.026001
		CHANNELS 3 Zrotation Yrotation Xrotation
		JOINT left_knee
		{
			OFFSET 0.054695 -0.378753 -0.009396
			CHANNELS 3 Zrotation Yrotation Xrotation
			JOINT left_ankle
			{
				OFFSET -0.043453 -0.403059 -0.031876
				CHANNELS 3 Zrotation Yrotation Xrotation
				JOINT left_foot
				{
					OFFSET 0.047257 -0.057997 0.118216
					CHANNELS 3 Zrotation Yrotation Xrotation
					End Site
					{
						OFFSET 0.000000 0.000000 0.000000
					}
				}
			}
		}
	}
	JOINT right_hip
	{
		OFFSET -0.063267 -0.103908 -0.021250
		CHANNELS 3 Zrotation Yrotation Xrotation
		JOINT right_knee
		{
			OFFSET -0.044210 -0.362380 -0.016824
			CHANNELS 3 Zrotation Yrotation Xrotation
			JOINT right_ankle
			{
				OFFSET 0.015417 -0.410728 -0.020192
				CHANNELS 3 Zrotation Yrotation Xrotation
				JOINT right_foot
				{
					OFFSET -0.038812 -0.058328 0.119049
					CHANNELS 3 Zrotation Yrotation Xrotation
					End Site
					{
						OFFSET 0.000000 0.000000 0.000000
					}
				}
			}
		}
	}
	JOINT spine_1
	{
		OFFSET -0.002763 0.109891 -0.027618
		CHANNELS 3 Zrotation Yrotation Xrotation
		JOINT spine_2
		{
			OFFSET 0.009448 0.131853 -0.005940
			CHANNELS 3 Zrotation Yrotation Xrotation
			JOINT spine_3
			{
				OFFSET -0.011330 0.052235 0.028447
				CHANNELS 3 Zrotation Yrotation Xrotation
				JOINT neck
				{
					OFFSET -0.012164 0.165167 -0.031615
					CHANNELS 3 Zrotation Yrotation Xrotation
					JOINT head
					{
						OFFSET 0.024783 0.160452 0.020737
						CHANNELS 3 Zrotation Yrotation Xrotation
						End Site
						{
							OFFSET 0.000000 0.000000 0.000000
						}
					}
				}
				JOINT left_collar
				{
					OFFSET 0.046364 0.084944 -0.007220
					CHANNELS 3 Zrotation Yrotation Xrotation
					JOINT left_shoulder
					{
						OFFSET 0.119239 0.057728 -0.015461
						CHANNELS 3 Zrotation Yrotation Xrotation
						JOINT left_elbow
						{
							OFFSET 0.254123 -0.072151 -0.042459
							CHANNELS 3 Zrotation Yrotation Xrotation
							JOINT left_wrist
							{
								OFFSET 0.251987 0.023221 -0.002472
								CHANNELS 3 Zrotation Yrotation Xrotation
								JOINT left_index_1
								{
									OFFSET 0.101902 -0.008688 0.019351
									CHANNELS 3 Zrotation Yrotation Xrotation
									JOINT left_index_2
									{
										OFFSET 0.030149 -0.011154 0.001151
										CHANNELS 3 Zrotation Yrotation Xrotation
										JOINT left_index_3
										{
											OFFSET 0.006504 -0.021577 -0.002433
											CHANNELS 3 Zrotation Yrotation Xrotation
											End Site
											{
												OFFSET 0.000000 0.000000 0.000000
											}
										}
									}
								}
								JOINT left_middle_1
								{
									OFFSET 0.109398 -0.006328 -0.003981
									CHANNELS 3 Zrotation Yrotation Xrotation
									JOINT left_middle_2
									{
										OFFSET 0.026472 -0.015218 -0.004641
										CHANNELS 3 Zrotation Yrotation Xrotation
										JOINT left_middle_3
										{
											OFFSET 0.005022 -0.023347 -0.001911
											CHANNELS 3 Zrotation Yrotation Xrotation
											End Site
											{
												OFFSET 0.000000 0.000000 0.000000
											}
										}
									}
								}
								JOINT left_pinky_1
								{
									OFFSET 0.084047 -0.014539 -0.043750
									CHANNELS 3 Zrotation Yrotation Xrotation
									JOINT left_pinky_2
									{
										OFFSET 0.012124 -0.014448 -0.005375
										CHANNELS 3 Zrotation Yrotation Xrotation
										JOINT left_pinky_3
										{
											OFFSET 0.003798 -0.018853 0.000167
											CHANNELS 3 Zrotation Yrotation Xrotation
											End Site
											{
												OFFSET 0.000000 0.000000 0.000000
											}
										}
									}
								}
								JOINT left_ring_1
								{
									OFFSET 0.097444 -0.009268 -0.027345
									CHANNELS 3 Zrotation Yrotation Xrotation
									JOINT left_ring_2
									{
										OFFSET 0.023561 -0.016057 -0.001895
										CHANNELS 3 Zrotation Yrotation Xrotation
										JOINT left_ring_3
										{
											OFFSET 0.004257 -0.023548 0.000814
											CHANNELS 3 Zrotation Yrotation Xrotation
											End Site
											{
												OFFSET 0.000000 0.000000 0.000000
											}
										}
									}
								}
								JOINT left_thumb_1
								{
									OFFSET 0.040636 -0.017977 0.025611
									CHANNELS 3 Zrotation Yrotation Xrotation
									JOINT left_thumb_2
									{
										OFFSET 0.021637 -0.017639 0.011623
										CHANNELS 3 Zrotation Yrotation Xrotation
										JOINT left_thumb_3
										{
											OFFSET 0.024002 -0.008356 0.006548
											CHANNELS 3 Zrotation Yrotation Xrotation
											End Site
											{
												OFFSET 0.000000 0.000000 0.000000
											}
										}
									}
								}
							}
						}
					}
				}
				JOINT right_collar
				{
					OFFSET -0.047695 0.084339 -0.013400
					CHANNELS 3 Zrotation Yrotation Xrotation
					JOINT right_shoulder
					{
						OFFSET -0.102578 0.053524 -0.012669
						CHANNELS 3 Zrotation Yrotation Xrotation
						JOINT right_elbow
						{
							OFFSET -0.271150 -0.036492 -0.026467
							CHANNELS 3 Zrotation Yrotation Xrotation
							JOINT right_wrist
							{
								OFFSET -0.249267 -0.004533 -0.015325
								CHANNELS 3 Zrotation Yrotation Xrotation
								JOINT right_index_1
								{
									OFFSET -0.099881 -0.011783 0.019600
									CHANNELS 3 Zrotation Yrotation Xrotation
									JOINT right_index_2
									{
										OFFSET -0.030148 -0.011154 0.001151
										CHANNELS 3 Zrotation Yrotation Xrotation
										JOINT right_index_3
										{
											OFFSET -0.006505 -0.021577 -0.002432
											CHANNELS 3 Zrotation Yrotation Xrotation
											End Site
											{
												OFFSET 0.000000 0.000000 0.000000
											}
										}
									}
								}
								JOINT right_middle_1
								{
									OFFSET -0.107376 -0.009422 -0.003734
									CHANNELS 3 Zrotation Yrotation Xrotation
									JOINT right_middle_2
									{
										OFFSET -0.026472 -0.015218 -0.004641
										CHANNELS 3 Zrotation Yrotation Xrotation
										JOINT right_middle_3
										{
											OFFSET -0.005022 -0.023347 -0.001911
											CHANNELS 3 Zrotation Yrotation Xrotation
											End Site
											{
												OFFSET 0.000000 0.000000 0.000000
											}
										}
									}
								}
								JOINT right_pinky_1
								{
									OFFSET -0.082027 -0.017634 -0.043503
									CHANNELS 3 Zrotation Yrotation Xrotation
									JOINT right_pinky_2
									{
										OFFSET -0.012123 -0.014448 -0.005374
										CHANNELS 3 Zrotation Yrotation Xrotation
										JOINT right_pinky_3
										{
											OFFSET -0.003798 -0.018852 0.000167
											CHANNELS 3 Zrotation Yrotation Xrotation
											End Site
											{
												OFFSET 0.000000 0.000000 0.000000
											}
										}
									}
								}
								JOINT right_ring_1
								{
									OFFSET -0.095423 -0.012362 -0.027099
									CHANNELS 3 Zrotation Yrotation Xrotation
									JOINT right_ring_2
									{
										OFFSET -0.023561 -0.016057 -0.001895
										CHANNELS 3 Zrotation Yrotation Xrotation
										JOINT right_ring_3
										{
											OFFSET -0.004257 -0.023548 0.000816
											CHANNELS 3 Zrotation Yrotation Xrotation
											End Site
											{
												OFFSET 0.000000 0.000000 0.000000
											}
										}
									}
								}
								JOINT right_thumb_1
								{
									OFFSET -0.038613 -0.021074 0.025861
									CHANNELS 3 Zrotation Yrotation Xrotation
									JOINT right_thumb_2
									{
										OFFSET -0.021636 -0.017639 0.011623
										CHANNELS 3 Zrotation Yrotation Xrotation
										JOINT right_thumb_3
										{
											OFFSET -0.024004 -0.008353 0.006547
											CHANNELS 3 Zrotation Yrotation Xrotation
											End Site
											{
												OFFSET 0.000000 0.000000 0.000000
											}
										}
									}
								}
							}
						}
					}
				}
			}
		}
	}
}
MOTION
Frames: 4
Frame Time: 0.050000
0.100845 0.990742 0.059982 0.332239 9.929889 -34.807319 6.273804 1.500899 25.310060 0.994079 -2.713859 18.820328 -8.579001 -1.585233 15.020851 0.000000 0.000000 0.000000 -10.821123 -1.726531 28.868346 -3.807023 1.359982 19.187360 7.769183 3.835940 17.223898 0.000000 0.000000 0.000000 -8.156217 -0.981672 39.776661 8.246327 -3.469794 23.545780 -10.844027 9.266838 -28.213822 0.765322 -7.780814 32.669063 0.000000 0.000000 0.000000 -10.967502 -6.661554 0.381181 -31.609661 -13.105547 -3.782513 -120.347118 -63.966821 100.695713 0.918760 -13.379645 -10.753701 -13.036810 -2.247797 0.327765 -12.745319 -8.278387 -25.679014 0.000000 0.000000 0.000000 -14.119409 -12.310368 -6.971107 -27.518359 -17.692926 -36.716400 0.000000 0.000000 0.000000 9.351037 -21.828466 -32.862862 -28.151245 -18.017437 -30.734323 0.000000 0.000000 0.000000 -14.909884 -17.467565 -9.734124 -14.601534 -24.498537 -55.299593 0.000000 0.000000 0.000000 18.985520 18.368611 6.365695 -13.238496 -8.135861 0.845533 0.000000 0.000000 0.000000 19.535119 10.288811 7.354633 38.529424 4.285249 -0.439574 77.862235 61.384792 46.508192 9.315371 3.425780 1.546444 22.853913 -5.364388 1.642160 50.822809 2.447679 -10.350887 0.000000 0.000000 0.000000 36.799585 1.717810 -6.545104 54.136796 8.075528 -16.628961 0.000000 0.000000 0.000000 24.066225 11.952891 -19.743400 54.299322 10.578359 -12.952419 0.000000 0.000000 0.000000 40.814086 6.869539 -5.321423 46.429344 13.644786 -17.753559 0.000000 0.000000 0.000000 -11.254460 -20.374282 17.138511 -3.116915 6.429951 -3.082774 0.000000 0.000000 0.000000 
0.113565 0.995255 0.071861 0.669352 12.690836 -36.687350 4.663626 1.650108 24.287602 1.594088 -3.460836 21.623659 -7.940364 -0.893536 14.201964 0.000000 0.000000 0.000000 -10.892498 -2.142281 30.320753 -3.901420 1.412428 22.734399 7.804226 3.511211 18.490087 0.000000 0.000000 0.000000 -9.902410 -0.626177 38.450276 5.954206 -1.463416 24.768212 -7.434995 10.465938 -24.465410 -1.437387 -7.114098 33.292125 0.000000 0.000000 0.000000 -11.614818 -5.853507 -0.118566 -29.872220 -19.510577 -4.159015 -114.717685 -63.417960 93.828829 4.023872 -14.873939 -9.500877 -16.464153 -4.607572 0.273507 -27.571988 -13.071030 -30.472454 0.000000 0.000000 0.000000 -20.439704 -14.169421 -7.401302 -30.078052 -18.863068 -39.588410 0.000000 0.000000 0.000000 9.216293 -21.079810 -29.938959 -27.642053 -20.621741 -36.815873 0.000000 0.000000 0.000000 -17.294673 -20.711604 -10.682640 -23.250669 -26.285847 -51.386493 0.000000 0.000000 0.000000 6.850016 15.226855 8.879682 -4.857447 -8.950293 -1.894276 0.000000 0.000000 0.000000 19.732651 8.403588 5.710963 36.076549 4.545913 -0.695560 73.903248 59.654848 42.300190 12.485227 0.923218 -1.617079 23.359378 -8.137850 2.247519 55.767678 -3.271190 -4.049940 0.000000 0.000000 0.000000 37.114684 -1.155330 -5.544596 56.716533 3.031143 -9.796943 0.000000 0.000000 0.000000 15.960324 9.173467 -15.999523 69.301774 7.774119 -7.785451 0.000000 0.000000 0.000000 37.556242 5.160859 -4.339584 56.621211 10.640153 -9.641421 0.000000 0.000000 0.000000 -15.553409 -26.816736 24.093848 -1.464993 15.648137 -5.721482 0.000000 0.000000 0.000000 
0.122046 0.991386 0.078461 2.053408 13.240884 -34.909027 2.076380 2.193219 23.112859 4.122190 -4.010530 20.968165 -11.202651 -5.014452 15.295259 0.000000 0.000000 0.000000 -11.158557 -1.840792 27.885166 -3.941036 1.408047 23.861816 6.645939 1.475850 19.082326 0.000000 0.000000 0.000000 -8.012856 -1.243042 43.859044 4.940211 -1.562186 12.565074 -8.740718 8.678560 -17.852602 -2.062594 -6.652545 33.250216 0.000000 0.000000 0.000000 -11.297164 -7.058341 0.842502 -29.795496 -18.385845 -4.675229 -117.172289 -64.605268 97.431912 5.674546 -13.646842 -5.847073 -34.739491 -12.089209 2.648360 -92.421333 -9.993340 -15.778746 0.000000 0.000000 0.000000 -59.544810 -17.621088 -6.354298 -65.723846 -18.223495 -26.246090 0.000000 0.000000 0.000000 -37.199760 -52.888635 -50.294321 -35.853007 -16.224920 -27.379125 0.000000 0.000000 0.000000 -57.352719 -40.171712 -5.531044 -46.224006 -29.630368 -41.062690 0.000000 0.000000 0.000000 7.011244 19.245004 12.867606 10.205922 -8.312013 -6.744518 0.000000 0.000000 0.000000 22.027071 9.525268 6.626205 36.050184 7.526079 -0.987180 67.735972 56.479902 34.814880 15.053511 1.771363 2.932591 28.760102 -10.686036 2.267268 62.352604 -7.416231 -2.790129 0.000000 0.000000 0.000000 46.615464 -3.306313 -7.525252 54.250015 -2.247222 -4.937028 0.000000 0.000000 0.000000 31.457927 11.834710 -21.970262 66.364516 4.216735 -4.030660 0.000000 0.000000 0.000000 47.535990 8.672651 -6.612608 54.643036 6.714102 -6.075402 0.000000 0.000000 0.000000 -16.247809 -30.066579 32.410929 -13.559867 19.097241 -11.658674 0.000000 0.000000 0.000000 
0.124872 0.990097 0.074501 0.943828 11.713185 -33.633709 3.676906 1.876946 23.079561 3.947701 -3.329513 18.102596 -12.279917 -6.173470 16.108176 0.000000 0.000000 0.000000 -9.199369 -2.116292 27.428201 -5.339955 1.794020 22.622857 6.631789 2.340176 17.277715 0.000000 0.000000 0.000000 -5.492309 -1.963007 43.740290 4.879657 -1.582664 11.104984 -9.565550 9.582763 -16.682623 -0.853382 -7.115554 32.420478 0.000000 0.000000 0.000000 -13.188098 -8.281282 0.985637 -29.337475 -16.439416 -4.546968 -118.878462 -66.866620 101.716496 5.857889 -12.191965 -8.131573 -25.313020 -7.117762 1.308377 -98.722114 9.051968 -5.144854 0.000000 0.000000 0.000000 -40.710748 -21.235793 -7.622620 -89.940543 -16.275052 -17.672286 0.000000 0.000000 0.000000 -8.703750 -42.604612 -57.270721 -66.653639 -34.879335 -33.584368 0.000000 0.000000 0.000000 -42.840765 -36.344852 -9.935800 -74.550943 -37.763723 -30.647495 0.000000 0.000000 0.000000 19.531891 23.096455 11.909249 -8.706771 -15.213618 -3.142964 0.000000 0.000000 0.000000 21.073765 10.146963 7.493373 34.605310 6.365627 -1.229005 70.520796 56.525206 37.355205 6.125648 0.688697 1.824425 26.322075 -0.835656 0.813913 49.611194 2.414960 -10.515537 0.000000 0.000000 0.000000 35.549125 8.141915 -7.862324 57.346620 10.829512 -19.511897 0.000000 0.000000 0.000000 1.325787 20.894065 -27.350925 69.740772 30.284971 -29.011005 0.000000 0.000000 0.000000 29.340780 17.460453 -9.075422 60.295586 20.475733 -21.341469 0.000000 0.000000 0.000000 -15.205706 -21.852538 17.411076 7.841394 11.072082 -0.707392 0.000000 0.000000 0.000000 
